<?xml version="1.0" encoding="UTF-8" standalone="no"?>
<svg
   xmlns:dc="http://purl.org/dc/elements/1.1/"
   xmlns:cc="http://creativecommons.org/ns#"
   xmlns:rdf="http://www.w3.org/1999/02/22-rdf-syntax-ns#"
   xmlns:svg="http://www.w3.org/2000/svg"
   xmlns="http://www.w3.org/2000/svg"
   xmlns:sodipodi="http://sodipodi.sourceforge.net/DTD/sodipodi-0.dtd"
   xmlns:inkscape="http://www.inkscape.org/namespaces/inkscape"
   height="100%"
   style="fill-rule:evenodd;clip-rule:evenodd;stroke-linejoin:round;stroke-miterlimit:1.41421;"
   version="1.1"
   viewBox="0 0 128 128"
   width="100%"
   xml:space="preserve"
   id="svg5"
   sodipodi:docname="default.svg"
   inkscape:version="1.0.2 (e86c870879, 2021-01-15)"><metadata
     id="metadata11"><rdf:RDF><cc:Work
         rdf:about=""><dc:format>image/svg+xml</dc:format><dc:type
           rdf:resource="http://purl.org/dc/dcmitype/StillImage" /></cc:Work></rdf:RDF></metadata><defs
     id="defs9" /><sodipodi:namedview
     pagecolor="#ffffff"
     bordercolor="#666666"
     borderopacity="1"
     objecttolerance="10"
     gridtolerance="10"
     guidetolerance="10"
     inkscape:pageopacity="0"
     inkscape:pageshadow="2"
     inkscape:window-width="1366"
     inkscape:window-height="705"
     id="namedview7"
     showgrid="false"
     inkscape:zoom="2.5080194"
     inkscape:cx="52.287009"
     inkscape:cy="61.810544"
     inkscape:window-x="-8"
     inkscape:window-y="-8"
     inkscape:window-maximized="1"
     inkscape:current-layer="g855"
     inkscape:document-rotation="0" /><rect
     height="128"
     id="User"
     style="fill:none;"
     width="128"
     x="0.195"
     y="0" /><g
     id="g855"><circle
       style="fill:#e6e6e6;stroke-width:4.70607"
       id="path851"
       cx="64.194084"
       cy="64.194084"
       r="61.004311" /><path
       d="m 63.774417,65.456391 c 14.713062,0.0821 28.572639,9.760386 33.315724,25.020126 0.16126,0.518143 0.39472,1.056087 0.23287,1.543964 -0.37318,1.129443 -1.935773,0.861633 -2.42423,-0.747536 C 91.613495,80.614245 83.149061,71.477963 72.078168,68.763802 62.264221,66.3582 51.277746,68.321339 43.734915,74.838354 c -4.961991,4.287235 -8.66238,10.166754 -10.393225,16.385691 0,0 -0.834858,1.616734 -1.899098,0.752183 -1.082871,-0.880262 0.06987,-2.883572 0.826707,-4.742503 4.966648,-12.199172 16.536474,-21.531068 30.737213,-21.772677 0.256161,-0.0035 0.511742,-0.0047 0.767905,-0.0047 z m -0.06113,-33.766337 c 6.915233,0.06578 13.444474,5.370686 14.767788,12.27311 1.29246,6.740576 -2.633818,14.125634 -8.975594,16.809522 -7.025266,2.973236 -16.095177,-0.365614 -19.492829,-7.302388 -3.508265,-7.163244 -0.192121,-16.909076 7.207491,-20.365527 2.023103,-0.944892 4.24881,-1.422287 6.493146,-1.414717 z m -0.18106,2.32817 c -5.798595,0.05532 -11.242638,4.442097 -12.44835,10.149289 -1.216192,5.757841 2.101117,12.154926 7.548653,14.460392 7.086979,2.999433 16.481168,-1.906086 17.654859,-9.930386 1.035131,-7.074752 -4.65343,-14.455735 -12.341226,-14.67522 -0.137979,-0.0029 -0.275958,-0.004 -0.413936,-0.004 z"
       style="fill:#999999;fill-rule:nonzero;stroke:#999999;stroke-width:1.50708;stroke-miterlimit:4;stroke-dasharray:none"
       id="path3" /></g></svg>
